<svg width="1280" height="346" viewBox="0 0 1280 346" fill="none" xmlns="http://www.w3.org/2000/svg">
<g filter="url(#filter1_i_35_8)">
<path d="M760.109 214.059C767.206 223.694 770.754 238.212 770.754 257.613C770.754 274.736 767.238 288.082 760.207 297.652C773.618 289.645 780.324 275.94 780.324 256.539C780.324 237.398 773.586 223.238 760.109 214.059ZM681.398 297.75C674.237 286.682 670.656 272.522 670.656 255.27C670.656 239.645 674.074 226.103 680.91 214.645C667.759 223.303 661.184 237.171 661.184 256.246C661.184 275.842 667.922 289.677 681.398 297.75ZM754.445 255.855C754.445 287.04 743.117 302.633 720.461 302.633C698.26 302.633 687.16 286.65 687.16 254.684C687.16 224.605 698.391 209.566 720.852 209.566C743.247 209.566 754.445 224.996 754.445 255.855ZM740.676 206.051C748.749 206.051 754.966 205.172 759.328 203.414C763.69 201.656 771.242 197.522 781.984 191.012C799.758 180.27 813.007 174.898 821.73 174.898C828.892 174.898 835.044 176.754 840.188 180.465L841.164 179.195C835.305 172.359 827.915 168.941 818.996 168.941C809.1 168.941 795.201 174.508 777.297 185.641C772.87 188.44 768.605 191.044 764.504 193.453C760.402 195.862 757.603 197.424 756.105 198.141C752.915 199.703 749.367 200.875 745.461 201.656C741.685 202.437 736.802 202.828 730.812 202.828C737.648 201.331 749.953 194.755 767.727 183.102C785.565 171.448 800.051 164.742 811.184 162.984C807.277 161.617 803.924 160.934 801.125 160.934C795.331 160.934 789.211 162.464 782.766 165.523C776.19 168.648 767.173 174.312 755.715 182.516C740.611 193.323 729.673 199.671 722.902 201.559C722.121 201.493 721.21 201.461 720.168 201.461C707.603 201.461 697.447 206.116 689.699 215.426C681.952 224.736 678.078 238.277 678.078 256.051C678.078 273.694 681.854 287.236 689.406 296.676C696.958 305.986 707.31 310.641 720.461 310.641C733.677 310.641 744.191 306.018 752.004 296.773C759.751 287.464 763.625 273.857 763.625 255.953C763.625 230.758 755.975 214.124 740.676 206.051ZM810.109 277.047V204C805.487 203.87 801.125 203.609 797.023 203.219C796.112 203.154 795.201 203.089 794.289 203.023C793.443 202.958 792.629 202.926 791.848 202.926C791.132 202.861 790.48 202.828 789.895 202.828V204.586C793.085 205.172 795.721 206.507 797.805 208.59C799.758 210.543 801.092 212.659 801.809 214.937C802.46 216.891 802.785 220.96 802.785 227.145V254.391C802.785 260.38 802.557 264.156 802.102 265.719C801.646 267.411 800.474 268.779 798.586 269.82C796.633 270.862 793.736 271.448 789.895 271.578V273.238C798.228 274.15 804.966 275.419 810.109 277.047ZM816.75 204V279C820.461 280.497 822.837 281.539 823.879 282.125V223.043C823.879 212.236 828.046 206.083 836.379 204.586V202.828C830.324 203.349 825.507 203.674 821.926 203.805C818.41 203.935 816.685 204 816.75 204Z" fill="white" fill-opacity="0.4"/>
</g>
<g filter="url(#filter2_i_35_8)">
<path d="M519.891 214.059C512.794 223.694 509.246 238.212 509.246 257.613C509.246 274.736 512.762 288.082 519.793 297.652C506.382 289.645 499.676 275.94 499.676 256.539C499.676 237.398 506.414 223.238 519.891 214.059ZM598.602 297.75C605.763 286.682 609.344 272.522 609.344 255.27C609.344 239.645 605.926 226.103 599.09 214.645C612.241 223.303 618.816 237.171 618.816 256.246C618.816 275.842 612.078 289.677 598.602 297.75ZM525.555 255.855C525.555 287.04 536.883 302.633 559.539 302.633C581.74 302.633 592.84 286.65 592.84 254.684C592.84 224.605 581.609 209.566 559.148 209.566C536.753 209.566 525.555 224.996 525.555 255.855ZM539.324 206.051C531.251 206.051 525.034 205.172 520.672 203.414C516.31 201.656 508.758 197.522 498.016 191.012C480.242 180.27 466.993 174.898 458.27 174.898C451.108 174.898 444.956 176.754 439.812 180.465L438.836 179.195C444.695 172.359 452.085 168.941 461.004 168.941C470.9 168.941 484.799 174.508 502.703 185.641C507.13 188.44 511.395 191.044 515.496 193.453C519.598 195.862 522.397 197.424 523.895 198.141C527.085 199.703 530.633 200.875 534.539 201.656C538.315 202.437 543.198 202.828 549.188 202.828C542.352 201.331 530.047 194.755 512.273 183.102C494.435 171.448 479.949 164.742 468.816 162.984C472.723 161.617 476.076 160.934 478.875 160.934C484.669 160.934 490.789 162.464 497.234 165.523C503.81 168.648 512.827 174.312 524.285 182.516C539.389 193.323 550.327 199.671 557.098 201.559C557.879 201.493 558.79 201.461 559.832 201.461C572.397 201.461 582.553 206.116 590.301 215.426C598.048 224.736 601.922 238.277 601.922 256.051C601.922 273.694 598.146 287.236 590.594 296.676C583.042 305.986 572.69 310.641 559.539 310.641C546.323 310.641 535.809 306.018 527.996 296.773C520.249 287.464 516.375 273.857 516.375 255.953C516.375 230.758 524.025 214.124 539.324 206.051ZM469.891 277.047V204C474.513 203.87 478.875 203.609 482.977 203.219C483.888 203.154 484.799 203.089 485.711 203.023C486.557 202.958 487.371 202.926 488.152 202.926C488.868 202.861 489.52 202.828 490.105 202.828V204.586C486.915 205.172 484.279 206.507 482.195 208.59C480.242 210.543 478.908 212.659 478.191 214.937C477.54 216.891 477.215 220.96 477.215 227.145V254.391C477.215 260.38 477.443 264.156 477.898 265.719C478.354 267.411 479.526 268.779 481.414 269.82C483.367 270.862 486.264 271.448 490.105 271.578V273.238C481.772 274.15 475.034 275.419 469.891 277.047ZM463.25 204V279C459.539 280.497 457.163 281.539 456.121 282.125V223.043C456.121 212.236 451.954 206.083 443.621 204.586V202.828C449.676 203.349 454.493 203.674 458.074 203.805C461.59 203.935 463.315 204 463.25 204Z" fill="white" fill-opacity="0.4"/>
</g>
<defs>
<filter id="filter1_i_35_8" x="661.184" y="160.934" width="179.98" height="153.707" filterUnits="userSpaceOnUse" color-interpolation-filters="sRGB">
<feFlood flood-opacity="0" result="BackgroundImageFix"/>
<feBlend mode="normal" in="SourceGraphic" in2="BackgroundImageFix" result="shape"/>
<feColorMatrix in="SourceAlpha" type="matrix" values="0 0 0 0 0 0 0 0 0 0 0 0 0 0 0 0 0 0 127 0" result="hardAlpha"/>
<feOffset dy="4"/>
<feGaussianBlur stdDeviation="2"/>
<feComposite in2="hardAlpha" operator="arithmetic" k2="-1" k3="1"/>
<feColorMatrix type="matrix" values="0 0 0 0 0 0 0 0 0 0 0 0 0 0 0 0 0 0 0.25 0"/>
<feBlend mode="normal" in2="shape" result="effect1_innerShadow_35_8"/>
</filter>
<filter id="filter2_i_35_8" x="438.836" y="160.934" width="179.98" height="153.707" filterUnits="userSpaceOnUse" color-interpolation-filters="sRGB">
<feFlood flood-opacity="0" result="BackgroundImageFix"/>
<feBlend mode="normal" in="SourceGraphic" in2="BackgroundImageFix" result="shape"/>
<feColorMatrix in="SourceAlpha" type="matrix" values="0 0 0 0 0 0 0 0 0 0 0 0 0 0 0 0 0 0 127 0" result="hardAlpha"/>
<feOffset dy="4"/>
<feGaussianBlur stdDeviation="2"/>
<feComposite in2="hardAlpha" operator="arithmetic" k2="-1" k3="1"/>
<feColorMatrix type="matrix" values="0 0 0 0 0 0 0 0 0 0 0 0 0 0 0 0 0 0 0.25 0"/>
<feBlend mode="normal" in2="shape" result="effect1_innerShadow_35_8"/>
</filter>
</defs>
</svg>
